<svg id="eugy3zN2G8T1" xmlns="http://www.w3.org/2000/svg" xmlns:xlink="http://www.w3.org/1999/xlink" viewBox="0 0 300 300" shape-rendering="geometricPrecision" text-rendering="geometricPrecision" width="300" height="300"><g transform="matrix(1.377314 0 0 1.377314-37.929022-70.819386)"><path d="M68.25,235.32609c-6.62742,0-12-5.37258-12-12v-126c0-6.62742,5.37258-12,12-12h104.26087c6.62742,0,12,5.37258,12,12v56.26426c-2.27468-2.65651-5.184-4.2507-8.35466-4.2507h-78.64548c-7.2836,0-13.18812,8.4127-13.18812,18.7903v37.9771c0,10.37759,5.90452,18.7903,13.18812,18.7903h78.64548c3.17066,0,6.07998-1.5942,8.35466-4.2507v2.67946c0,6.62742-5.37258,12-12,12L68.25,235.32609Zm82.61106-105.50721c5.57753,0,10.09901-3.76528,10.09901-8.41v-16.99746c0-4.64471-4.52148-8.41-10.09901-8.41h-60.224c-5.57753,0-10.09901,3.76528-10.09901,8.41v16.99746c0,4.64471,4.52148,8.41,10.09901,8.41h60.224Z" fill="#088be2" stroke-width="0"/><path d="M167.85646,235.32609c-2.80822,0-5.08472-3.93218-5.08472-8.78278v-1.64598h13.38447c7.2836,0,13.18812-8.4127,13.18812-18.7903v-37.9771c0-10.37759-5.90452-18.7903-13.18812-18.7903h-13.38447v-15.01548c0-4.85059,2.27651-8.78278,5.08472-8.78278h44.17815c2.80822,0,5.08472,3.93218,5.08472,8.78278v92.21915c0,4.85059-2.27651,8.78278-5.08472,8.78278l-44.17815.00001Z" fill="#088be2" stroke-width="0"/><polygon points="0,-28.260869 24.47463,14.130434 -24.47463,14.130434 0,-28.260869" transform="matrix(-.367018 0.930214-1.038197-.409623 186.900959 117.450676)" fill="#088be2" stroke-width="0"/></g></svg>
