<svg id="eYhXgZCP4T11" xmlns="http://www.w3.org/2000/svg" xmlns:xlink="http://www.w3.org/1999/xlink" viewBox="0 0 300 300" shape-rendering="geometricPrecision" text-rendering="geometricPrecision" width="300" height="300"><g transform="matrix(1.235997 0 0 1.235997-36.115308-32.875502)"><rect width="36.539601" height="23.643271" rx="0" ry="0" transform="matrix(5.058832 0 0 1 57.576149 207.697526)" fill="#088be2" stroke-width="0"/><rect width="36.539601" height="23.643271" rx="0" ry="0" transform="matrix(1.378551 0 0 1 57.576146 129.032813)" fill="#088be2" stroke-width="0"/><rect width="36.539601" height="23.643271" rx="0" ry="0" transform="matrix(1.378551 0 0 1 192.052148 129.032813)" fill="#088be2" stroke-width="0"/><rect width="36.539601" height="23.643271" rx="0" ry="0" transform="matrix(0 2.799921-1 0 80.576779 129.032812)" fill="#088be2" stroke-width="0"/><rect width="36.539601" height="23.643271" rx="0" ry="0" transform="matrix(0 2.107361-1 0 161.821635 108.787212)" fill="#088be2" stroke-width="0"/><rect width="36.539601" height="23.643271" rx="0" ry="0" transform="matrix(0 2.799921-1 0 244.224676 129.032812)" fill="#088be2" stroke-width="0"/><polygon points="0,-32.57322 28.209236,16.28661 -28.209236,16.28661 0,-32.57322" transform="translate(150.000001 97.148183)" fill="#088be2" stroke-width="0"/></g></svg>
